<svg viewBox="0 102.93577981651379 2499.9999999999995 1278.8990825688072" xmlns="http://www.w3.org/2000/svg" overflow="visible" xmlns:xlink="http://www.w3.org/1999/xlink" width="2499.9999999999995px" height="1278.8990825688072px"><g id="Master/Composition/Town" stroke="none" stroke-width="1" fill="none" fill-rule="evenodd"><g id="bg"><g id="Sky" transform="scale(1 1)"><g id="Sky/Partly Cloudy" stroke="none" stroke-width="1" fill="none" fill-rule="evenodd"><g id="Cloud" transform="translate(75.000000, 136.000000)"><path d="M447.5,18 C484.458419,18 515.396288,41.6324271 523.3159,73.3137534 C533.599132,68.7136054 545.15327,66.1336472 557.364672,66.1336472 C588.062215,66.1336472 614.606235,82.4374453 627.256686,106.11535 C631.301236,105.039183 635.580254,104.462292 640.00624,104.462292 C662.505495,104.462292 681.206901,119.369969 684.999821,138.999074 L210.000179,138.999074 C213.793099,119.369969 232.494505,104.462292 254.99376,104.462292 C261.960473,104.462292 268.563055,105.891612 274.471655,108.447844 C286.134082,82.5646469 313.9398,64.3509195 346.385611,64.3509195 C355.747738,64.3509195 364.723534,65.8673782 373.036706,68.6469874 C382.69624,39.3399892 412.379854,18 447.5,18 Z" id="Combined-Shape-Copy" fill="#CECCFF"/><path d="M189.161738,0 C223.377279,0 253.930027,15.6304729 274.024293,40.1181855 C284.743217,32.3806255 297.924907,27.818505 312.175668,27.818505 C340.812783,27.818505 365.132823,46.2410282 373.856506,71.8440591 C379.870896,70.0147803 386.257681,69.031105 392.874978,69.031105 C428.842534,69.031105 458,98.0922325 458,133.94095 C458,135.643085 457.934266,137.329918 457.80519,138.999064 L2.44516361e-05,138.998359 C0.60104714,108.220879 25.8209217,83.455515 56.844232,83.455515 C65.6620393,83.455515 74.0110007,85.4562504 81.459069,89.0271015 C90.9561476,38.3529649 135.565187,0 189.161738,0 Z" id="Combined-Shape-Copy" fill="#E8E7FF"/></g><g id="Cloud" transform="translate(1755.000000, 461.000000)"><path d="M208,60 C240.366365,60 267.460231,80.6935062 274.395846,108.434956 C283.400154,104.407175 293.51929,102.147781 304.214096,102.147781 C331.097587,102.147781 354.343603,116.424143 365.422204,137.157589 C368.964658,136.214978 372.711751,135.709902 376.587532,135.709902 C396.309372,135.709902 412.699131,148.787659 415.999824,165.99908 L0.000176409884,165.99908 C3.30086926,148.787659 19.6906278,135.709902 39.4124685,135.709902 C45.5137306,135.709902 51.2960885,136.961537 56.4706524,139.199986 C66.6829308,116.535895 91.0341107,100.586752 119.448973,100.586752 C127.648081,100.586752 135.508842,101.914695 142.789272,104.348756 C151.24828,78.6859923 177.243638,60 208,60 Z" id="Combined-Shape-Copy" fill="#CECCFF"/><path d="M361.916528,0 C402.781687,0 439.272176,18.6997338 463.271494,47.9958955 C476.073138,38.7384542 491.816463,33.2806113 508.836612,33.2806113 C543.038959,33.2806113 572.085269,55.3203365 582.5043,85.9504457 C589.687531,83.7620373 597.315501,82.5852205 605.218779,82.5852205 C648.176161,82.5852205 683,117.352441 683,160.23998 C683,162.17722 682.928947,164.097892 682.789301,165.999539 L136.000021,165.99816 C136.871036,129.313183 166.930632,99.8418338 203.884841,99.8418338 C214.416027,99.8418338 224.38728,102.235297 233.282625,106.50709 C244.625551,45.8838446 297.90394,0 361.916528,0 Z" id="Combined-Shape-Copy" fill="#E8E7FF"/></g><path d="M184.837471,128 C190.117251,128 195.066112,130.370723 198.832164,134.53317 L199,134.720744 L197.32688,136 C193.933399,132.165116 189.512934,130.013765 184.837471,130.013765 C181.654565,130.013765 178.585672,131.006575 175.859839,132.877345 L175.656048,133.019297 L175.000459,133.482717 L174.344806,133.019377 C171.567684,131.05683 168.424827,130.013765 165.162358,130.013765 C160.56118,130.013765 156.206962,132.097295 152.835471,135.81849 L152.673104,135.999824 L151,134.720551 C154.786217,130.441944 159.803858,128 165.162358,128 C168.579373,128 171.870982,128.991629 174.806986,130.84829 L174.99989,130.972317 L175.193446,130.848361 C178.057236,129.036954 181.260043,128.048889 184.587668,128.001768 L184.837471,128 Z" id="Bird" fill="#A39FFF"/><g id="Birds" transform="translate(1784.000000, 257.000000)" fill="#A39FFF"><path d="M59.2155744,123 C68.455189,123 77.1156952,127.148765 83.7062872,134.433048 L84,134.761302 L81.0720403,137 C75.1334477,130.288953 67.3976352,126.524088 59.2155744,126.524088 C53.6454884,126.524088 48.2749256,128.261506 43.504718,131.535354 L43.1480843,131.78377 L42.000804,132.594754 L40.8534101,131.783909 C35.993447,128.349453 30.4934474,126.524088 24.7841268,126.524088 C16.7320656,126.524088 9.11218392,130.170267 3.21207437,136.682358 L2.92793277,136.999693 L0,134.760964 C6.62588051,127.273401 15.4067522,123 24.7841268,123 C30.7639027,123 36.5242184,124.735351 41.6622248,127.984508 L41.9998079,128.201555 L42.3385304,127.984632 C47.3501638,124.81467 52.9550745,123.085555 58.7784198,123.003094 L59.2155744,123 Z" id="Bird"/><path d="M355.215574,123 C364.455189,123 373.115695,127.148765 379.706287,134.433048 L380,134.761302 L377.07204,137 C371.133448,130.288953 363.397635,126.524088 355.215574,126.524088 C349.645488,126.524088 344.274926,128.261506 339.504718,131.535354 L339.148084,131.78377 L338.000804,132.594754 L336.85341,131.783909 C331.993447,128.349453 326.493447,126.524088 320.784127,126.524088 C312.732066,126.524088 305.112184,130.170267 299.212074,136.682358 L298.927933,136.999693 L296,134.760964 C302.625881,127.273401 311.406752,123 320.784127,123 C326.763903,123 332.524218,124.735351 337.662225,127.984508 L337.999808,128.201555 L338.33853,127.984632 C343.350164,124.81467 348.955074,123.085555 354.77842,123.003094 L355.215574,123 Z" id="Bird"/><path d="M321.215574,82 C330.455189,82 339.115695,86.1487655 345.706287,93.4330475 L346,93.7613015 L343.07204,96 C337.133448,89.2889526 329.397635,85.5240885 321.215574,85.5240885 C315.645488,85.5240885 310.274926,87.2615065 305.504718,90.5353542 L305.148084,90.7837705 L304.000804,91.594754 L302.85341,90.7839094 C297.993447,87.3494527 292.493447,85.5240885 286.784127,85.5240885 C278.732066,85.5240885 271.112184,89.170267 265.212074,95.6823582 L264.927933,95.9996928 L262,93.7609639 C268.625881,86.2734012 277.406752,82 286.784127,82 C292.763903,82 298.524218,83.7353507 303.662225,86.9845082 L303.999808,87.2015546 L304.33853,86.9846321 C309.350164,83.8146703 314.955074,82.0855552 320.77842,82.0030939 L321.215574,82 Z" id="Bird"/><path d="M278.215574,41 C287.455189,41 296.115695,45.1487655 302.706287,52.4330475 L303,52.7613015 L300.07204,55 C294.133448,48.2889526 286.397635,44.5240885 278.215574,44.5240885 C272.645488,44.5240885 267.274926,46.2615065 262.504718,49.5353542 L262.148084,49.7837705 L261.000804,50.594754 L259.85341,49.7839094 C254.993447,46.3494527 249.493447,44.5240885 243.784127,44.5240885 C235.732066,44.5240885 228.112184,48.170267 222.212074,54.6823582 L221.927933,54.9996928 L219,52.7609639 C225.625881,45.2734012 234.406752,41 243.784127,41 C249.763903,41 255.524218,42.7353507 260.662225,45.9845082 L260.999808,46.2015546 L261.33853,45.9846321 C266.350164,42.8146703 271.955074,41.0855552 277.77842,41.0030939 L278.215574,41 Z" id="Bird"/><path d="M101.215574,82 C110.455189,82 119.115695,86.1487655 125.706287,93.4330475 L126,93.7613015 L123.07204,96 C117.133448,89.2889526 109.397635,85.5240885 101.215574,85.5240885 C95.6454884,85.5240885 90.2749256,87.2615065 85.504718,90.5353542 L85.1480843,90.7837705 L84.000804,91.594754 L82.8534101,90.7839094 C77.993447,87.3494527 72.4934474,85.5240885 66.7841268,85.5240885 C58.7320656,85.5240885 51.1121839,89.170267 45.2120744,95.6823582 L44.9279328,95.9996928 L42,93.7609639 C48.6258805,86.2734012 57.4067522,82 66.7841268,82 C72.7639027,82 78.5242184,83.7353507 83.6622248,86.9845082 L83.9998079,87.2015546 L84.3385304,86.9846321 C89.3501638,83.8146703 94.9550745,82.0855552 100.77842,82.0030939 L101.215574,82 Z" id="Bird"/><path d="M152.215574,41 C161.455189,41 170.115695,45.1487655 176.706287,52.4330475 L177,52.7613015 L174.07204,55 C168.133448,48.2889526 160.397635,44.5240885 152.215574,44.5240885 C146.645488,44.5240885 141.274926,46.2615065 136.504718,49.5353542 L136.148084,49.7837705 L135.000804,50.594754 L133.85341,49.7839094 C128.993447,46.3494527 123.493447,44.5240885 117.784127,44.5240885 C109.732066,44.5240885 102.112184,48.170267 96.2120744,54.6823582 L95.9279328,54.9996928 L93,52.7609639 C99.6258805,45.2734012 108.406752,41 117.784127,41 C123.763903,41 129.524218,42.7353507 134.662225,45.9845082 L134.999808,46.2015546 L135.33853,45.9846321 C140.350164,42.8146703 145.955074,41.0855552 151.77842,41.0030939 L152.215574,41 Z" id="Bird"/><path d="M202.215574,0 C211.455189,0 220.115695,4.14876546 226.706287,11.4330475 L227,11.7613015 L224.07204,14 C218.133448,7.28895256 210.397635,3.52408848 202.215574,3.52408848 C196.645488,3.52408848 191.274926,5.26150649 186.504718,8.53535422 L186.148084,8.78377046 L185.000804,9.59475397 L183.85341,8.78390939 C178.993447,5.34945272 173.493447,3.52408848 167.784127,3.52408848 C159.732066,3.52408848 152.112184,7.17026697 146.212074,13.6823582 L145.927933,13.9996928 L143,11.7609639 C149.625881,4.27340116 158.406752,0 167.784127,0 C173.763903,0 179.524218,1.7353507 184.662225,4.98450818 L184.999808,5.2015546 L185.33853,4.98463206 C190.350164,1.81467027 195.955074,0.085555223 201.77842,0.00309390721 L202.215574,0 Z" id="Bird"/></g><path d="M676.837471,163 C682.117251,163 687.066112,165.667064 690.832164,170.349816 L691,170.560837 L689.32688,172 C685.933399,167.685755 681.512934,165.265485 676.837471,165.265485 C673.654565,165.265485 670.585672,166.382397 667.859839,168.487013 L667.656048,168.64671 L667.000459,169.168056 L666.344806,168.646799 C663.567684,166.438934 660.424827,165.265485 657.162358,165.265485 C652.56118,165.265485 648.206962,167.609457 644.835471,171.795802 L644.673104,171.999803 L643,170.56062 C646.786217,165.747186 651.803858,163 657.162358,163 C660.579373,163 663.870982,164.115583 666.806986,166.204327 L666.99989,166.343857 L667.193446,166.204406 C670.057236,164.166574 673.260043,163.055 676.587668,163.001989 L676.837471,163 Z" id="Bird" fill="#A39FFF"/><path d="M1447,382 C1482.68598,382 1512.55866,404.796153 1520.20539,435.356308 C1530.1334,430.918774 1541.29017,428.429907 1553.08163,428.429907 C1582.72221,428.429907 1608.35227,444.156682 1620.56709,466.99656 C1624.47204,465.958375 1628.60384,465.401869 1632.87755,465.401869 C1654.7105,465.401869 1672.83968,479.925774 1676.3756,499.000031 L1217.6244,499.000031 C1221.16032,479.925774 1239.2895,465.401869 1261.12245,465.401869 C1267.84939,465.401869 1274.22473,466.780647 1279.92996,469.246482 C1291.19075,444.27915 1318.03891,426.71028 1349.36735,426.71028 C1358.40702,426.71028 1367.07366,428.173034 1375.10052,430.854208 C1384.42783,402.58452 1413.08927,382 1447,382 Z" id="Cloud" fill="#E8E7FF"/><path d="M325.5,705 C355.765783,705 381.101234,724.327107 387.586577,750.23673 C396.007023,746.474486 405.469091,744.364437 415.469431,744.364437 C440.608213,744.364437 462.34557,757.698161 472.705062,777.062583 C476.016787,776.182001 479.520991,775.710192 483.145552,775.710192 C501.587316,775.710192 516.913281,787.924252 519.999808,803.999001 L131.000192,803.999001 C134.086719,787.924252 149.412684,775.710192 167.854448,775.710192 C173.559876,775.710192 178.967081,776.879238 183.8059,778.969976 C193.355718,757.801891 216.126093,742.906495 242.696276,742.906495 C250.363104,742.906495 257.713556,744.146702 264.521363,746.419953 C272.431756,722.451961 296.739886,705 325.5,705 Z" id="Cloud" fill="#E8E7FF"/><path d="M831.624245,353 C868.453966,353 901.341007,369.959868 922.970336,396.530231 C934.507946,388.133862 948.696438,383.183962 964.035639,383.183962 C994.860524,383.183962 1021.03851,403.17309 1030.42856,430.953306 C1036.90223,428.968279 1043.77698,427.900943 1050.89985,427.900943 C1089.61509,427.900943 1121,459.433191 1121,498.330189 C1121,499.561363 1120.96856,500.785159 1120.90643,502.000811 L628.073363,502.00047 C629.649184,469.453655 656.413157,443.551887 689.198544,443.551887 C698.68961,443.551887 707.676053,445.722582 715.692872,449.59679 C725.915734,394.614752 773.932875,353 831.624245,353 Z" id="Cloud" fill="#E8E7FF" transform="translate(874.500000, 427.500000) scale(-1, 1) translate(-874.500000, -427.500000)"/><path d="M1165.36189,317 C1211.00645,317 1251.76472,338.03846 1278.57106,370.998673 C1292.87116,360.583687 1310.45557,354.443396 1329.46608,354.443396 C1367.66888,354.443396 1400.11257,379.239981 1411.75017,413.701455 C1419.77316,411.239162 1428.29348,409.915094 1437.12132,409.915094 C1485.10309,409.915094 1524,449.031047 1524,497.283019 C1524,498.865832 1523.95815,500.438815 1523.87549,502.000909 L913.083147,502.000395 C914.953931,461.548737 948.158748,429.330189 988.846471,429.330189 C1000.60903,429.330189 1011.74621,432.022859 1021.68174,436.828685 C1034.3521,368.623238 1093.86213,317 1165.36189,317 Z" id="Cloud" fill="#CECCFF" transform="translate(1218.500000, 409.500000) scale(-1, 1) translate(-1218.500000, -409.500000)"/><g id="Cloud" transform="translate(1642.000000, 800.000000)"><path d="M337.5,14 C365.432756,14 388.815253,31.7731119 394.800841,55.5995276 C402.572248,52.1401107 411.305012,50.1996851 420.534563,50.1996851 C443.735418,50.1996851 463.797091,62.4611929 473.35818,80.2685115 C476.415145,79.4592061 479.649131,79.0253602 482.99419,79.0253602 C499.998817,79.0253602 514.133095,90.2368234 516.999828,104.999114 L158.000172,104.999114 C160.866905,90.2368234 175.001183,79.0253602 192.00581,79.0253602 C197.271171,79.0253602 202.261327,80.1003005 206.72698,82.022751 C215.541742,62.5566194 236.556843,48.858956 261.078809,48.858956 C268.154675,48.858956 274.93855,49.9994553 281.221609,52.0899439 C288.521798,30.0492274 310.956444,14 337.5,14 Z" id="Combined-Shape-Copy" fill="#E8E7FF"/><path d="M142.903845,0 C168.751971,0 191.83307,11.8069204 207.013462,30.3044664 C215.112008,24.4600742 225.07008,21.0139786 235.835767,21.0139786 C257.469977,21.0139786 275.842798,34.9303468 282.433133,54.2708458 C286.977332,52.8887661 291.80198,52.1457988 296.800747,52.1457988 C323.972744,52.1457988 346,74.098449 346,101.178415 C346,102.464459 345.950321,103.738939 345.85277,105.000052 L1.25624525e-05,104.999063 C0.453900829,81.7497474 19.5065335,63.0419358 42.9434591,63.0419358 C49.6045117,63.0419358 55.911417,64.5530853 61.5378451,67.2501598 C68.7129105,28.9722537 102.413463,0 142.903845,0 Z" id="Combined-Shape-Copy" fill="#CECCFF"/></g></g></g><g id="Horizon" transform="translate(0.000000, 591.000000) scale(1 1)"><g id="Horizon/Mountains" stroke="none" stroke-width="1" fill="none" fill-rule="evenodd"><polygon id="Mountain" fill="#E8E7FF" points="1920.13058 373 1964.88059 373 2019.55573 519.128205 2142.46305 588.75845 2163 660 1649 660 1657.90016 606.813139 1726.95247 584.177928 1748.86935 533.451307 1831.44499 505.564622 1845.66548 460.995783 1892.66337 438.976833"/><polygon id="Mountain" fill="#E8E7FF" points="2323 423 2370.75117 452.212731 2419.1785 548.171133 2472.91547 596.371019 2500 660 2146 660"/><polygon id="Mountain" fill="#CECCFF" points="2186.5 330 2351.8582 578.267076 2398.14614 603.517082 2434 660 1939 660 2012.79866 488.89741 2096.05946 436.744989 2128.84107 351.299632"/><polygon id="Path" fill="#E8E7FF" points="760 660 912.02322 485.204922 982.781524 455.502282 1045.6 373 1092.27714 390.719539 1162.6544 515.321524 1265.0992 593.575309 1293.01584 525.729022 1325.8 515.283898 1391.58879 609.86741 1425.82294 636.476797 1438 660"/><polygon id="Mountain" fill="#CECCFF" points="461 58 502.648886 130.255416 549.69324 142.579216 808 660 114 660 338.702905 203.376202 376.385244 175.926726 420.792624 58"/><polygon id="Mountain" fill="#CECCFF" points="234 253 267.639773 265.685313 468 660 0 660 166.464517 359.01497 225.383887 320.765318"/><polygon id="Path" fill="#A39FFF" points="194 660 204.969574 612.497652 356.803162 570.168644 381.447467 505.362084 490.227253 299.559695 587.24017 254.863683 628.858228 163 668.5 163 796.569352 416.237336 836.076582 356.683824 880.72013 370.252598 965.787038 563.247603 1113.30869 606.819232 1143 660"/></g></g><g id="Street" transform="translate(0.000000, 1250.000000)"><rect id="Rectangle" fill="#E8E7FF" x="0" y="0" width="2500" height="110"/><rect id="Rectangle" fill="#A39FFF" x="0" y="0" width="2500" height="16"/></g></g><g id="Left" transform="translate(80.000000, 1097.000000)"><g id="Tree/Medium" transform="translate(39.000000, 17.000000) scale(1 1)"><g id="Tree/Medium/8" stroke="none" stroke-width="1" fill="none" fill-rule="evenodd"><path d="M48,112 C67.882251,112 84,104.347506 84,77.8378378 C84,51.3281698 67.882251,16 48,16 C28.117749,16 12,51.3281698 12,77.8378378 C12,104.347506 28.117749,112 48,112 Z" id="Oval" fill="#0CC647"/><rect id="Rectangle" fill="#02A837" x="47" y="56" width="4" height="80"/></g></g><g id="Building/Small" transform="translate(98.000000, 0.000000) scale(0.9695945945945946 0.96875)"><g id="Building/Small/6" stroke="none" stroke-width="1" fill="none" fill-rule="evenodd"><g id="Group-2" transform="translate(8.000000, -28.000000)"><g id="Group"><polygon id="Triangle" fill="#5628D2" points="185.5 0 283 80 88 80 97.5 0"/><polygon id="Triangle" fill="#7364FF" points="97.5 0 195 80 0 80"/></g><rect id="Rectangle" fill="#E8E7FF" x="0" y="80" width="195" height="108"/><rect id="Rectangle" fill="#CECCFF" x="195" y="80" width="88" height="108"/><path d="M39,88 C51.7025492,88 62,98.2974508 62,111 L62,161 L62,161 L16,161 L16,111 C16,98.2974508 26.2974508,88 39,88 Z" id="Rectangle" fill="#FFC30D"/><path d="M156,88 C168.702549,88 179,98.2974508 179,111 L179,161 L179,161 L133,161 L133,111 C133,98.2974508 143.297451,88 156,88 Z" id="Rectangle" fill="#7364FF"/><path d="M239,88 C251.702549,88 262,98.2974508 262,111 L262,155 L262,155 L216,155 L216,111 C216,98.2974508 226.297451,88 239,88 Z" id="Rectangle" fill="#5628D2"/><rect id="Rectangle" fill="#A39FFF" x="0" y="172" width="195" height="16"/><rect id="Rectangle-Copy" fill="#7364FF" x="195" y="172" width="88" height="16"/><path d="M97.5,108 C108.269553,108 117,116.730447 117,127.5 L117,188 L117,188 L78,188 L78,127.5 C78,116.730447 86.7304474,108 97.5,108 Z" id="Rectangle" fill="#7364FF"/><rect id="Rectangle-Copy-5" fill="#FFF" x="12" y="157" width="53" height="7"/><rect id="Rectangle-Copy-6" fill="#FFF" x="130" y="157" width="53" height="7"/><rect id="Rectangle-Copy-7" fill="#A39FFF" x="213" y="157" width="53" height="7"/></g></g></g><g id="Tree/Medium" transform="translate(341.000000, 17.000000) scale(1 1)"><g id="Tree/Medium/1" stroke="none" stroke-width="1" fill="none" fill-rule="evenodd"><rect id="Rectangle" fill="#00D745" x="24" y="-31" width="49" height="143" rx="24"/><rect id="Rectangle" fill="#02A837" x="47" y="40" width="4" height="96"/></g></g><g id="Tree/Medium" transform="translate(0.000000, 17.000000) scale(1 1)"><g id="Tree/Medium/4" stroke="none" stroke-width="1" fill="none" fill-rule="evenodd"><rect id="Rectangle" fill="#02A837" x="46" y="14" width="6" height="122"/><polygon id="Triangle" fill="#0CC647" points="48 -15 93 114 3 114"/></g></g><g id="Tree/Small" transform="translate(295.000000, 73.000000) scale(1 1)"><g id="Tree/Small/1" stroke="none" stroke-width="1" fill="none" fill-rule="evenodd"><circle id="Oval" fill="#00D745" cx="58" cy="62" r="14"/><path d="M32,43 C38.3259398,43 43.5086123,47.8949093 43.9670354,54.1037459 C45.4975132,53.3951663 47.2026086,53 49,53 C55.627417,53 61,58.372583 61,65 C61,65.5684111 60.9604798,66.1275918 60.8840371,66.6749442 C62.673726,65.610715 64.7655429,65 67,65 C73.627417,65 79,70.372583 79,77 C79,78.0362344 78.8686559,79.0417918 78.6217076,80.0009322 L2.60874853,80.0005801 C1.57821894,77.8860425 1,75.5105464 1,73 C1,64.163444 8.163444,57 17,57 C18.1049225,57 19.1836859,57.1120004 20.2255567,57.3252675 C20.0775021,56.5738849 20,55.7959932 20,55 C20,48.372583 25.372583,43 32,43 Z" id="Combined-Shape" fill="#02A837"/></g></g><g id="Tree/Small" transform="translate(341.000000, 73.000000) scale(1 1)"><g id="Tree/Small/3" stroke="none" stroke-width="1" fill="none" fill-rule="evenodd"><circle id="Oval" fill="#02A837" cx="19.5" cy="64.5" r="10.5"/><path d="M27,80 C27,72.544742 20.9206881,67 13.4648439,67 C6.00899981,67 0,72.544742 0,80" id="Path" fill="#02A837"/><path d="M39.1538462,55 C42.2672566,55 45.1976115,55.7986987 47.7583753,57.2060038 C49.5659667,56.3826459 51.5690004,55.925 53.6769231,55.925 C59.83465,55.925 65.0972983,59.83036 67.2099361,65.3431512 C67.8258947,65.232575 68.4601956,65.175 69.1076923,65.175 C75.1233477,65.175 80,70.1446393 80,76.275 C80,77.5819121 79.7783629,78.8360709 79.3713029,80.0005719 L22.1525441,80.001022 C21.4074917,77.9785138 21,75.7877517 21,73.5 C21,63.2827321 29.1277538,55 39.1538462,55 Z" id="Combined-Shape" fill="#00D745"/></g></g><g id="Tree/Small" transform="translate(72.000000, 73.000000) scale(1 1)"><g id="Tree/Small/1" stroke="none" stroke-width="1" fill="none" fill-rule="evenodd"><circle id="Oval" fill="#00D745" cx="58" cy="62" r="14"/><path d="M32,43 C38.3259398,43 43.5086123,47.8949093 43.9670354,54.1037459 C45.4975132,53.3951663 47.2026086,53 49,53 C55.627417,53 61,58.372583 61,65 C61,65.5684111 60.9604798,66.1275918 60.8840371,66.6749442 C62.673726,65.610715 64.7655429,65 67,65 C73.627417,65 79,70.372583 79,77 C79,78.0362344 78.8686559,79.0417918 78.6217076,80.0009322 L2.60874853,80.0005801 C1.57821894,77.8860425 1,75.5105464 1,73 C1,64.163444 8.163444,57 17,57 C18.1049225,57 19.1836859,57.1120004 20.2255567,57.3252675 C20.0775021,56.5738849 20,55.7959932 20,55 C20,48.372583 25.372583,43 32,43 Z" id="Combined-Shape" fill="#02A837"/></g></g></g><g id="Building/Wide" transform="translate(495.000000, 920.000000) scale(1 1)"><g id="Building/Wide/5" stroke="none" stroke-width="1" fill="none" fill-rule="evenodd"><rect id="Rectangle" fill="#CECCFF" x="0" y="48" width="688" height="284"/><rect id="Rectangle" fill="#7364FF" x="688" y="52" width="104" height="280"/><path d="M716,72 C724.836556,72 732,79.163444 732,88 L732,120 L732,120 L700,120 L700,88 C700,79.163444 707.163444,72 716,72 Z" id="Rectangle" fill="#5628D2"/><path d="M716,158 C724.836556,158 732,165.163444 732,174 L732,206 L732,206 L700,206 L700,174 C700,165.163444 707.163444,158 716,158 Z" id="Rectangle" fill="#5628D2"/><path d="M764,72 C772.836556,72 780,79.163444 780,88 L780,120 L780,120 L748,120 L748,88 C748,79.163444 755.163444,72 764,72 Z" id="Rectangle" fill="#5628D2"/><path d="M764,158 C772.836556,158 780,165.163444 780,174 L780,206 L780,206 L748,206 L748,174 C748,165.163444 755.163444,158 764,158 Z" id="Rectangle" fill="#5628D2"/><rect id="Rectangle" fill="#7364FF" x="688" y="48" width="112" height="8"/><path d="M36,72 C44.836556,72 52,79.163444 52,88 L52,120 L52,120 L20,120 L20,88 C20,79.163444 27.163444,72 36,72 Z" id="Rectangle" fill="#7364FF"/><path d="M36,158 C44.836556,158 52,165.163444 52,174 L52,206 L52,206 L20,206 L20,174 C20,165.163444 27.163444,158 36,158 Z" id="Rectangle" fill="#7364FF"/><path d="M202,72 C210.836556,72 218,79.163444 218,88 L218,120 L218,120 L186,120 L186,88 C186,79.163444 193.163444,72 202,72 Z" id="Rectangle" fill="#7364FF"/><path d="M202,158 C210.836556,158 218,165.163444 218,174 L218,206 L218,206 L186,206 L186,174 C186,165.163444 193.163444,158 202,158 Z" id="Rectangle" fill="#7364FF"/><rect id="Rectangle" fill="#FFC30D" x="713" y="236" width="54" height="64"/><path d="M484,72 C492.836556,72 500,79.163444 500,88 L500,120 L500,120 L468,120 L468,88 C468,79.163444 475.163444,72 484,72 Z" id="Rectangle" fill="#7364FF"/><path d="M484,158 C492.836556,158 500,165.163444 500,174 L500,206 L500,206 L468,206 L468,174 C468,165.163444 475.163444,158 484,158 Z" id="Rectangle" fill="#7364FF"/><path d="M648,72 C656.836556,72 664,79.163444 664,88 L664,120 L664,120 L632,120 L632,88 C632,79.163444 639.163444,72 648,72 Z" id="Rectangle" fill="#7364FF"/><path d="M648,158 C656.836556,158 664,165.163444 664,174 L664,206 L664,206 L632,206 L632,174 C632,165.163444 639.163444,158 648,158 Z" id="Rectangle" fill="#7364FF"/><path d="M36,254 C44.836556,254 52,261.163444 52,270 L52,302 L52,302 L20,302 L20,270 C20,261.163444 27.163444,254 36,254 Z" id="Rectangle-Copy-8" fill="#FFC30D"/><path d="M113,254 C127.359403,254 139,265.640597 139,280 L139,332 L139,332 L87,332 L87,280 C87,265.640597 98.6405965,254 113,254 Z" id="Rectangle-Copy-7" fill="#7364FF"/><path d="M202,254 C210.836556,254 218,261.163444 218,270 L218,302 L218,302 L186,302 L186,270 C186,261.163444 193.163444,254 202,254 Z" id="Rectangle-Copy-5" fill="#7364FF"/><path d="M484,254 C492.836556,254 500,261.163444 500,270 L500,302 L500,302 L468,302 L468,270 C468,261.163444 475.163444,254 484,254 Z" id="Rectangle-Copy-4" fill="#FFC30D"/><path d="M554,254 C568.359403,254 580,265.640597 580,280 L580,332 L580,332 L528,332 L528,280 C528,265.640597 539.640597,254 554,254 Z" id="Rectangle-Copy-3" fill="#7364FF"/><path d="M648,254 C656.836556,254 664,261.163444 664,270 L664,302 L664,302 L632,302 L632,270 C632,261.163444 639.163444,254 648,254 Z" id="Rectangle-Copy" fill="#7364FF"/><rect id="Rectangle" fill="#7364FF" x="72" y="33" width="100" height="15"/><rect id="Rectangle-Copy-10" fill="#7364FF" x="520" y="33" width="100" height="15"/><rect id="Rectangle" fill="#E8E7FF" x="246" y="55" width="186" height="278"/><rect id="Rectangle-Copy-2" fill="#A39FFF" x="0" y="120" width="696" height="8"/><rect id="Rectangle-Copy-16" fill="#7364FF" x="80" y="25" width="107" height="8"/><rect id="Rectangle-Copy-17" fill="#7364FF" x="525" y="25" width="107" height="8"/><rect id="Rectangle-Copy-14" fill="#A39FFF" x="58" y="25" width="107" height="8"/><rect id="Rectangle-Copy-15" fill="#A39FFF" x="506" y="25" width="107" height="8"/><rect id="Rectangle-Copy-6" fill="#A39FFF" x="0" y="206" width="696" height="8"/><rect id="Rectangle" fill="#A39FFF" x="244" y="48" width="192" height="7"/><rect id="Rectangle" fill="#A39FFF" x="420" y="55" width="24" height="277"/><rect id="Rectangle" fill="#7364FF" x="436" y="48" width="8" height="284"/><rect id="Rectangle" fill="#7364FF" x="428" y="198" width="16" height="24"/><path d="M344,236 C363.882251,236 380,252.117749 380,272 L380,332 L380,332 L308,332 L308,272 C308,252.117749 324.117749,236 344,236 Z" id="Rectangle" fill="#7364FF"/><rect id="Rectangle" fill="#A39FFF" x="244" y="55" width="24" height="277"/><rect id="Rectangle" fill="#7364FF" x="260" y="55" width="8" height="277"/><rect id="Rectangle" fill="#CECCFF" x="236" y="198" width="192" height="24"/><rect id="Rectangle" fill="#A39FFF" x="339" y="-115" width="9" height="159" rx="4.5"/><rect id="Rectangle" fill="#A39FFF" x="82" y="33" width="78" height="300"/><rect id="Rectangle-Copy-11" fill="#A39FFF" x="530" y="33" width="78" height="300"/><rect id="Rectangle-Copy-9" fill="#7364FF" x="80" y="33" width="80" height="300"/><rect id="Rectangle-Copy-12" fill="#7364FF" x="528" y="33" width="80" height="300"/><rect id="Rectangle-Copy" fill="#A39FFF" x="0" y="48" width="696" height="8"/><rect id="Rectangle" fill="#E8E7FF" x="72" y="33" width="80" height="300"/><rect id="Rectangle-Copy-13" fill="#E8E7FF" x="520" y="33" width="80" height="300"/><path d="M113,254 C121.836556,254 129,261.163444 129,270 L129,334 L129,334 L97,334 L97,270 C97,261.163444 104.163444,254 113,254 Z" id="Rectangle-Copy-24" fill="#7364FF"/><path d="M143.140352,-36 C159.079096,-36 172,-17.7929132 172,4.66666667 L172,25 L114.280705,25 L114.280705,4.66666667 C114.280705,-3.01484569 105.882141,-29.8716324 108.508775,-36 L143.140352,-36 Z" id="Rectangle" fill="#7364FF"/><path d="M112,-36 C134.09139,-36 152,-18.09139 152,4 L152,25 L152,25 L72,25 L72,4 C72,-18.09139 89.90861,-36 112,-36 Z" id="Rectangle" fill="#A39FFF"/><path d="M357.5,-75 C410.795478,-75 454,-31.7954784 454,21.5 L454,48 L454,48 L261,48 L261,21.5 C261,-31.7954784 304.204522,-75 357.5,-75 Z" id="Rectangle-Copy-18" fill="#7364FF"/><path d="M559,254 C567.836556,254 575,261.163444 575,270 L575,334 L575,334 L543,334 L543,270 C543,261.163444 550.163444,254 559,254 Z" id="Rectangle-Copy-25" fill="#7364FF"/><path d="M339.5,-75 C392.795478,-75 436,-31.7954784 436,21.5 L436,48 L436,48 L243,48 L243,21.5 C243,-31.7954784 286.204522,-75 339.5,-75 Z" id="Rectangle" fill="#A39FFF"/><path d="M591.140352,-36 C607.079096,-36 620,-17.7929132 620,4.66666667 L620,25 L562.280705,25 L562.280705,4.66666667 C562.280705,-3.01484569 553.882141,-29.8716324 556.508775,-36 L591.140352,-36 Z" id="Rectangle" fill="#7364FF"/><rect id="Rectangle-Copy-27" fill="#7364FF" x="428" y="24" width="32" height="24"/><path d="M560,-36 C582.09139,-36 600,-18.09139 600,4 L600,25 L600,25 L520,25 L520,4 C520,-18.09139 537.90861,-36 560,-36 Z" id="Rectangle" fill="#A39FFF"/><rect id="Rectangle-Copy-26" fill="#CECCFF" x="236" y="24" width="192" height="24"/><path d="M559,72 C567.836556,72 575,79.163444 575,88 L575,120 L575,120 L543,120 L543,88 C543,79.163444 550.163444,72 559,72 Z" id="Rectangle-Copy-22" fill="#FFC30D"/><path d="M113,72 C121.836556,72 129,79.163444 129,88 L129,120 L129,120 L97,120 L97,88 C97,79.163444 104.163444,72 113,72 Z" id="Rectangle-Copy-19" fill="#7364FF"/><path d="M559,158 C567.836556,158 575,165.163444 575,174 L575,206 L575,206 L543,206 L543,174 C543,165.163444 550.163444,158 559,158 Z" id="Rectangle-Copy-21" fill="#7364FF"/><path d="M113,158 C121.836556,158 129,165.163444 129,174 L129,206 L129,206 L97,206 L97,174 C97,165.163444 104.163444,158 113,158 Z" id="Rectangle-Copy-20" fill="#FFC30D"/><path d="M309,141 L380,141 L380,141 L380,198 L308,198 L308,142 C308,141.447715 308.447715,141 309,141 Z" id="Rectangle-Copy-23" fill="#7364FF"/><circle id="Oval" fill="#7364FF" cx="344" cy="90" r="17"/></g></g><g id="Building/Wide" transform="translate(1206.000000, 920.000000) scale(1 1)"><g id="Building/Wide/1" stroke="none" stroke-width="1" fill="none" fill-rule="evenodd"><rect id="Rectangle" fill="#7364FF" x="444" y="14" width="11" height="22"/><rect id="Rectangle" fill="#CECCFF" x="0" y="36" width="688" height="296"/><rect id="Rectangle" fill="#7364FF" x="688" y="36" width="104" height="296"/><path d="M716,62 C724.836556,62 732,69.163444 732,78 L732,110 L732,110 L700,110 L700,78 C700,69.163444 707.163444,62 716,62 Z" id="Rectangle" fill="#5628D2"/><path d="M716,148 C724.836556,148 732,155.163444 732,164 L732,196 L732,196 L700,196 L700,164 C700,155.163444 707.163444,148 716,148 Z" id="Rectangle" fill="#5628D2"/><path d="M764,62 C772.836556,62 780,69.163444 780,78 L780,110 L780,110 L748,110 L748,78 C748,69.163444 755.163444,62 764,62 Z" id="Rectangle" fill="#5628D2"/><path d="M764,148 C772.836556,148 780,155.163444 780,164 L780,196 L780,196 L748,196 L748,164 C748,155.163444 755.163444,148 764,148 Z" id="Rectangle" fill="#5628D2"/><rect id="Rectangle" fill="#7364FF" x="696" y="28" width="104" height="8"/><rect id="Rectangle" fill="#7364FF" x="696" y="108" width="104" height="8"/><rect id="Rectangle" fill="#7364FF" x="696" y="196" width="104" height="8"/><rect id="Rectangle" fill="#7364FF" x="24" y="236" width="80" height="64"/><rect id="Rectangle" fill="#7364FF" x="120" y="236" width="80" height="64"/><path d="M40,62 C48.836556,62 56,69.163444 56,78 L56,110 L56,110 L24,110 L24,78 C24,69.163444 31.163444,62 40,62 Z" id="Rectangle" fill="#7364FF"/><path d="M40,148 C48.836556,148 56,155.163444 56,164 L56,196 L56,196 L24,196 L24,164 C24,155.163444 31.163444,148 40,148 Z" id="Rectangle" fill="#FFC30D"/><path d="M136,62 C144.836556,62 152,69.163444 152,78 L152,110 L152,110 L120,110 L120,78 C120,69.163444 127.163444,62 136,62 Z" id="Rectangle" fill="#FFC30D"/><path d="M136,148 C144.836556,148 152,155.163444 152,164 L152,196 L152,196 L120,196 L120,164 C120,155.163444 127.163444,148 136,148 Z" id="Rectangle" fill="#7364FF"/><path d="M88,62 C96.836556,62 104,69.163444 104,78 L104,110 L104,110 L72,110 L72,78 C72,69.163444 79.163444,62 88,62 Z" id="Rectangle" fill="#7364FF"/><path d="M88,148 C96.836556,148 104,155.163444 104,164 L104,196 L104,196 L72,196 L72,164 C72,155.163444 79.163444,148 88,148 Z" id="Rectangle" fill="#7364FF"/><path d="M184,62 C192.836556,62 200,69.163444 200,78 L200,110 L200,110 L168,110 L168,78 C168,69.163444 175.163444,62 184,62 Z" id="Rectangle" fill="#7364FF"/><path d="M184,148 C192.836556,148 200,155.163444 200,164 L200,196 L200,196 L168,196 L168,164 C168,155.163444 175.163444,148 184,148 Z" id="Rectangle" fill="#7364FF"/><rect id="Rectangle" fill="#A39FFF" x="0" y="108" width="244" height="8"/><rect id="Rectangle" fill="#A39FFF" x="0" y="196" width="244" height="8"/><rect id="Rectangle" fill="#7364FF" x="468" y="236" width="80" height="64"/><rect id="Rectangle" fill="#7364FF" x="564" y="236" width="80" height="64"/><rect id="Rectangle" fill="#FFC30D" x="713" y="236" width="54" height="64"/><g id="Group" transform="translate(312.000000, -16.000000)"><path d="M44.1589923,0 C55.1168783,0 64,8.954305 64,20 L64,30 L24.3179846,30 L24.3179846,20 C24.3179846,16.222207 18.5439718,3.01395126 20.349783,0 L44.1589923,0 Z" id="Rectangle" fill="#7364FF"/><path d="M20,0 C31.045695,-2.02906125e-15 40,8.954305 40,20 L40,30 L40,30 L0,30 L0,20 C-1.3527075e-15,8.954305 8.954305,2.02906125e-15 20,0 Z" id="Rectangle" fill="#A39FFF"/><circle id="Oval" fill="#7364FF" cx="20" cy="16" r="8"/></g><path d="M484,62 C492.836556,62 500,69.163444 500,78 L500,110 L500,110 L468,110 L468,78 C468,69.163444 475.163444,62 484,62 Z" id="Rectangle" fill="#7364FF"/><path d="M484,148 C492.836556,148 500,155.163444 500,164 L500,196 L500,196 L468,196 L468,164 C468,155.163444 475.163444,148 484,148 Z" id="Rectangle" fill="#FFC30D"/><path d="M580,62 C588.836556,62 596,69.163444 596,78 L596,110 L596,110 L564,110 L564,78 C564,69.163444 571.163444,62 580,62 Z" id="Rectangle" fill="#FFC30D"/><path d="M580,148 C588.836556,148 596,155.163444 596,164 L596,196 L596,196 L564,196 L564,164 C564,155.163444 571.163444,148 580,148 Z" id="Rectangle" fill="#7364FF"/><path d="M532,62 C540.836556,62 548,69.163444 548,78 L548,110 L548,110 L516,110 L516,78 C516,69.163444 523.163444,62 532,62 Z" id="Rectangle" fill="#7364FF"/><path d="M532,148 C540.836556,148 548,155.163444 548,164 L548,196 L548,196 L516,196 L516,164 C516,155.163444 523.163444,148 532,148 Z" id="Rectangle" fill="#7364FF"/><path d="M628,62 C636.836556,62 644,69.163444 644,78 L644,110 L644,110 L612,110 L612,78 C612,69.163444 619.163444,62 628,62 Z" id="Rectangle" fill="#7364FF"/><path d="M628,148 C636.836556,148 644,155.163444 644,164 L644,196 L644,196 L612,196 L612,164 C612,155.163444 619.163444,148 628,148 Z" id="Rectangle" fill="#7364FF"/><rect id="Rectangle" fill="#A39FFF" x="444" y="108" width="244" height="8"/><rect id="Rectangle" fill="#A39FFF" x="0" y="28" width="696" height="8"/><rect id="Rectangle" fill="#E8E7FF" x="246" y="22" width="186" height="311"/><rect id="Rectangle" fill="#A39FFF" x="244" y="14" width="192" height="8"/><rect id="Rectangle" fill="#A39FFF" x="444" y="196" width="244" height="8"/><rect id="Rectangle" fill="#A39FFF" x="420" y="22" width="24" height="310"/><rect id="Rectangle" fill="#7364FF" x="436" y="14" width="8" height="318"/><rect id="Rectangle" fill="#7364FF" x="428" y="188" width="16" height="24"/><path d="M344,236 C363.882251,236 380,252.117749 380,272 L380,332 L380,332 L308,332 L308,272 C308,252.117749 324.117749,236 344,236 Z" id="Rectangle" fill="#7364FF"/><rect id="Rectangle" fill="#A39FFF" x="244" y="22" width="24" height="310"/><rect id="Rectangle" fill="#7364FF" x="260" y="22" width="8" height="310"/><path d="M300,62 C308.836556,62 316,69.163444 316,78 L316,196 L316,196 L284,196 L284,78 C284,69.163444 291.163444,62 300,62 Z" id="Rectangle" fill="#7364FF"/><path d="M344,62 C352.836556,62 360,69.163444 360,78 L360,196 L360,196 L328,196 L328,78 C328,69.163444 335.163444,62 344,62 Z" id="Rectangle" fill="#7364FF"/><path d="M388,62 C396.836556,62 404,69.163444 404,78 L404,196 L404,196 L372,196 L372,78 C372,69.163444 379.163444,62 388,62 Z" id="Rectangle" fill="#7364FF"/><rect id="Rectangle" fill="#CECCFF" x="236" y="188" width="192" height="24"/></g></g><g id="Right" transform="translate(1939.000000, 1097.000000)"><g id="Tree/Medium" transform="translate(0.000000, 17.000000) scale(1 1)"><g id="Tree/Medium/2" stroke="none" stroke-width="1" fill="none" fill-rule="evenodd"><rect id="Rectangle" fill="#02A837" x="24" y="0" width="48" height="112" rx="24"/><rect id="Rectangle" fill="#0CC647" x="47" y="40" width="4" height="96"/></g></g><g id="Building/Small" transform="translate(66.000000, 0.000000) scale(0.9695945945945946 0.96875)"><g id="Building/Small/5" stroke="none" stroke-width="1" fill="none" fill-rule="evenodd"><g id="Group" transform="translate(0.000000, 64.000000)"><rect id="Rectangle" fill="#A39FFF" x="8" y="7" width="195" height="89"/><rect id="Rectangle-Copy-2" fill="#A39FFF" x="203" y="0" width="93" height="7"/><rect id="Rectangle" fill="#7364FF" x="203" y="7" width="88" height="89"/><rect id="Rectangle" fill="#FFE38E" x="14" y="13" width="46" height="83"/><rect id="Rectangle" fill="#FFE38E" x="151" y="13" width="46" height="83"/><rect id="Rectangle" fill="#A39FFF" x="8" y="54" width="195" height="7"/><rect id="Rectangle-Copy-4" fill="#A39FFF" x="8" y="89" width="195" height="7"/><rect id="Rectangle" fill="#E8E7FF" x="64" y="7" width="77" height="89"/><rect id="Rectangle" fill="#CECCFF" x="141" y="7" width="6" height="89"/><rect id="Rectangle-Copy" fill="#CECCFF" x="0" y="0" width="211" height="7"/><polygon id="Rectangle" fill="#7364FF" points="79 13 125 13 125 70.8869474 125 96 79 96"/><rect id="Rectangle" fill="#5628D2" x="227" y="13" width="46" height="75"/><rect id="Rectangle-Copy-3" fill="#7364FF" x="203" y="54" width="88" height="7"/></g></g></g><g id="Tree/Medium" transform="translate(327.000000, 17.000000) scale(1 1)"><g id="Tree/Medium/5" stroke="none" stroke-width="1" fill="none" fill-rule="evenodd"><rect id="Rectangle" fill="#02A837" x="46" y="14" width="6" height="122"/><polygon id="Triangle" fill="#02A837" points="48 -39 101 114 -5 114"/></g></g><g id="Tree/Small" transform="translate(401.000000, 73.000000) scale(1 1)"><g id="Tree/Small/4" stroke="none" stroke-width="1" fill="none" fill-rule="evenodd"><path d="M40.5,80 C54.0309764,80 65,79.4563316 65,63.7162162 C65,47.9761008 54.0309764,23 40.5,23 C26.9690236,23 16,47.9761008 16,63.7162162 C16,79.4563316 26.9690236,80 40.5,80 Z" id="Oval" fill="#00D745"/></g></g></g><g id="Cars" transform="translate(33.000000, 1167.000000)"><g id="Transport" transform="translate(2115.000000, 0.000000) scale(1 1)"><g id="Transport/Pickup Truck" stroke="none" stroke-width="1" fill="none" fill-rule="evenodd"><g id="Group" transform="translate(48.000000, 40.000000)"><path d="M10.5070742,29 L212,29 C216.418278,29 220,32.581722 220,37 L220,50 C220,61.5979797 210.59798,71 199,71 L4.63272881,71 C2.42358981,71 0.632728812,69.209139 0.632728812,67 C0.632728812,66.8048106 0.64701587,66.6098831 0.675475475,66.4167796 L5.56050751,33.2709745 C5.92208142,30.8176317 8.02723007,29 10.5070742,29 Z" id="Rectangle" fill="#7364FF" transform="translate(110.000000, 50.000000) scale(1, -1) translate(-110.000000, -50.000000)"/><path d="M99.8421053,0 L130.497088,0 L160.157895,0 L153.938385,25.1981621 C153.38725,27.4310669 151.383982,29 149.084066,29 L106.641772,29 C104.024286,29 101.849788,26.9812953 101.655557,24.3710251 L99.8421053,0 L99.8421053,0 Z" id="Rectangle" fill="#5628D2" transform="translate(130.000000, 14.500000) scale(1, -1) translate(-130.000000, -14.500000)"/><path d="M28.5039262,41 L60,41 C70.4934102,41 79,49.5065898 79,60 L79,74 C79,76.7614237 76.7614237,79 74,79 L14.3323642,79 C12.6755099,79 11.3323642,77.6568542 11.3323642,76 C11.3323642,75.895099 11.3378663,75.7902702 11.3488478,75.6859456 L13.5863444,54.4297282 C14.3899445,46.7955275 20.8275472,41 28.5039262,41 Z" id="Rectangle" fill="#A39FFF"/><path d="M168.708886,41 L206,41 C216.49341,41 225,49.5065898 225,60 L225,76 C225,77.6568542 223.656854,79 222,79 L154.891613,79 C153.234759,79 151.891613,77.6568542 151.891613,76 C151.891613,75.7423207 151.924812,75.4857152 151.990389,75.2365201 L159.03814,48.455067 C160.194227,44.0619364 164.166185,41 168.708886,41 Z" id="Rectangle-Copy" fill="#A39FFF"/><path d="M38.307614,54 L52,54 C60.2842712,54 67,60.7157288 67,69 L67,79 L67,79 L22,79 L23.4144614,67.2128217 C24.319133,59.6738917 30.7145977,54 38.307614,54 Z" id="Rectangle" fill="#370EA3"/><path d="M188,54 L200,54 C208.284271,54 215,60.7157288 215,69 L215,79 L215,79 L173,79 L173,69 C173,60.7157288 179.715729,54 188,54 Z" id="Rectangle-Copy-2" fill="#370EA3"/><path d="M145.441448,6 L151.125026,29 L160.157895,29 L159.599343,7.38022444 C159.487932,6.97397249 159.237536,6.62891638 158.903527,6.38542325 C158.569518,6.14193013 158.151897,6 157.706037,6 L145.441448,6 Z" id="Combined-Shape" fill="#A39FFF" transform="translate(152.799672, 17.500000) scale(-1, -1) translate(-152.799672, -17.500000)"/><circle id="Oval" fill="#5628D2" cx="45" cy="78" r="16"/><circle id="Oval" fill="#E8E7FF" cx="45" cy="78" r="8"/><circle id="Oval" fill="#5628D2" cx="195" cy="78" r="16"/><circle id="Oval" fill="#E8E7FF" cx="195" cy="78" r="8"/><path d="M109.833634,6 L141,6 C142.104569,6 143,6.8954305 143,8 L143,27 C143,28.1045695 142.104569,29 141,29 L108.18146,29 C107.076891,29 106.18146,28.1045695 106.18146,27 C106.18146,26.9421654 106.183969,26.884358 106.188979,26.8267408 L107.841153,7.82674077 C107.931024,6.79322554 108.796219,6 109.833634,6 Z" id="Rectangle" fill="#A39FFF"/></g></g></g><g id="Transport" transform="translate(1022.000000, 0.000000) scale(1 1)"><g id="Transport/School Bus" stroke="none" stroke-width="1" fill="none" fill-rule="evenodd"><g id="Group" transform="translate(5.000000, 0.000000)"><path d="M10,0 L253,0 C258.522847,-1.01453063e-15 263,4.4771525 263,10 L263,113 C263,114.656854 261.656854,116 260,116 L3,116 C1.34314575,116 2.02906125e-16,114.656854 0,113 L0,10 C-6.76353751e-16,4.4771525 4.4771525,1.01453063e-15 10,0 Z" id="Rectangle" fill="#CECCFF"/><path d="M71,78 L91,78 C101.49341,78 110,86.5065898 110,97 L110,113 C110,114.656854 108.656854,116 107,116 L55,116 C53.3431458,116 52,114.656854 52,113 L52,97 C52,86.5065898 60.5065898,78 71,78 Z" id="Rectangle-Copy-8" fill="#A39FFF"/><path d="M75,91 L87,91 C95.2842712,91 102,97.7157288 102,106 L102,116 L102,116 L60,116 L60,106 C60,97.7157288 66.7157288,91 75,91 Z" id="Rectangle-Copy-9" fill="#370EA3"/><circle id="Oval" fill="#5628D2" cx="81.5" cy="115.5" r="18.5"/><path d="M255,47.7498051 L304.484856,73.1796949 C308.485091,75.2353851 311,79.3553292 311,83.8528555 L311,116 L311,116 L255,116 L255,47.7498051 Z" id="Rectangle" fill="#CECCFF"/><path d="M263,78 L292,78 C302.49341,78 311,86.5065898 311,97 L311,113 C311,114.656854 309.656854,116 308,116 L256,116 C254.343146,116 253,114.656854 253,113 L253,88 C253,82.4771525 257.477153,78 263,78 Z" id="Rectangle-Copy-3" fill="#A39FFF"/><path d="M276,91 L288,91 C296.284271,91 303,97.7157288 303,106 L303,116 L303,116 L261,116 L261,106 C261,97.7157288 267.715729,91 276,91 Z" id="Rectangle-Copy-4" fill="#370EA3"/><circle id="Oval" fill="#E8E7FF" cx="81.5" cy="115.5" r="9.5"/><circle id="Oval" fill="#5628D2" cx="282.5" cy="115.5" r="18.5"/><circle id="Oval" fill="#E8E7FF" cx="282.5" cy="115.5" r="9.5"/><rect id="Rectangle" fill="#5628D2" x="213" y="22" width="35" height="88"/><rect id="Rectangle-Copy" fill="#5628D2" x="171" y="22" width="33" height="26"/><rect id="Rectangle-Copy-6" fill="#5628D2" x="255" y="22" width="8" height="30"/><rect id="Rectangle-Copy-2" fill="#5628D2" x="135" y="22" width="33" height="26"/><rect id="Rectangle-Copy-3" fill="#5628D2" x="99" y="22" width="33" height="26"/><rect id="Rectangle-Copy-4" fill="#5628D2" x="63" y="22" width="33" height="26"/><rect id="Rectangle-Copy-5" fill="#5628D2" x="27" y="22" width="33" height="26"/><rect id="Rectangle-Copy-7" fill="#5628D2" x="0" y="22" width="24" height="26"/><rect id="Rectangle" fill="#5628D2" x="0" y="63" width="213" height="9"/></g></g></g><g id="Transport" transform="scale(1 1)"><g id="Transport/Pickup Truck" stroke="none" stroke-width="1" fill="none" fill-rule="evenodd"><g id="Group" transform="translate(48.000000, 40.000000)"><path d="M10.5070742,29 L212,29 C216.418278,29 220,32.581722 220,37 L220,50 C220,61.5979797 210.59798,71 199,71 L4.63272881,71 C2.42358981,71 0.632728812,69.209139 0.632728812,67 C0.632728812,66.8048106 0.64701587,66.6098831 0.675475475,66.4167796 L5.56050751,33.2709745 C5.92208142,30.8176317 8.02723007,29 10.5070742,29 Z" id="Rectangle" fill="#7364FF" transform="translate(110.000000, 50.000000) scale(1, -1) translate(-110.000000, -50.000000)"/><path d="M99.8421053,0 L130.497088,0 L160.157895,0 L153.938385,25.1981621 C153.38725,27.4310669 151.383982,29 149.084066,29 L106.641772,29 C104.024286,29 101.849788,26.9812953 101.655557,24.3710251 L99.8421053,0 L99.8421053,0 Z" id="Rectangle" fill="#5628D2" transform="translate(130.000000, 14.500000) scale(1, -1) translate(-130.000000, -14.500000)"/><path d="M28.5039262,41 L60,41 C70.4934102,41 79,49.5065898 79,60 L79,74 C79,76.7614237 76.7614237,79 74,79 L14.3323642,79 C12.6755099,79 11.3323642,77.6568542 11.3323642,76 C11.3323642,75.895099 11.3378663,75.7902702 11.3488478,75.6859456 L13.5863444,54.4297282 C14.3899445,46.7955275 20.8275472,41 28.5039262,41 Z" id="Rectangle" fill="#A39FFF"/><path d="M168.708886,41 L206,41 C216.49341,41 225,49.5065898 225,60 L225,76 C225,77.6568542 223.656854,79 222,79 L154.891613,79 C153.234759,79 151.891613,77.6568542 151.891613,76 C151.891613,75.7423207 151.924812,75.4857152 151.990389,75.2365201 L159.03814,48.455067 C160.194227,44.0619364 164.166185,41 168.708886,41 Z" id="Rectangle-Copy" fill="#A39FFF"/><path d="M38.307614,54 L52,54 C60.2842712,54 67,60.7157288 67,69 L67,79 L67,79 L22,79 L23.4144614,67.2128217 C24.319133,59.6738917 30.7145977,54 38.307614,54 Z" id="Rectangle" fill="#370EA3"/><path d="M188,54 L200,54 C208.284271,54 215,60.7157288 215,69 L215,79 L215,79 L173,79 L173,69 C173,60.7157288 179.715729,54 188,54 Z" id="Rectangle-Copy-2" fill="#370EA3"/><path d="M145.441448,6 L151.125026,29 L160.157895,29 L159.599343,7.38022444 C159.487932,6.97397249 159.237536,6.62891638 158.903527,6.38542325 C158.569518,6.14193013 158.151897,6 157.706037,6 L145.441448,6 Z" id="Combined-Shape" fill="#A39FFF" transform="translate(152.799672, 17.500000) scale(-1, -1) translate(-152.799672, -17.500000)"/><circle id="Oval" fill="#5628D2" cx="45" cy="78" r="16"/><circle id="Oval" fill="#E8E7FF" cx="45" cy="78" r="8"/><circle id="Oval" fill="#5628D2" cx="195" cy="78" r="16"/><circle id="Oval" fill="#E8E7FF" cx="195" cy="78" r="8"/><path d="M109.833634,6 L141,6 C142.104569,6 143,6.8954305 143,8 L143,27 C143,28.1045695 142.104569,29 141,29 L108.18146,29 C107.076891,29 106.18146,28.1045695 106.18146,27 C106.18146,26.9421654 106.183969,26.884358 106.188979,26.8267408 L107.841153,7.82674077 C107.931024,6.79322554 108.796219,6 109.833634,6 Z" id="Rectangle" fill="#A39FFF"/></g></g></g></g></g></svg>